<svg width="76" height="77" viewBox="0 0 76 77" fill="none" xmlns="http://www.w3.org/2000/svg">
<g filter="url(#filter0_d_330_710)">
<rect x="8" y="7" width="60" height="61" rx="30" fill="#FFD000"/>
</g>
<path d="M37.7083 47.9805C38.2032 47.9805 38.6235 47.579 38.6235 47.0934V38.8476H46.6265C47.1121 38.8476 47.5323 38.4274 47.5323 37.9324C47.5323 37.4282 47.1121 37.0173 46.6265 37.0173H38.6235V28.7621C38.6235 28.2766 38.2032 27.875 37.7083 27.875C37.204 27.875 36.7932 28.2766 36.7932 28.7621V37.0173H28.7902C28.3046 37.0173 27.875 37.4282 27.875 37.9324C27.875 38.4274 28.3046 38.8476 28.7902 38.8476H36.7932V47.0934C36.7932 47.579 37.204 47.9805 37.7083 47.9805Z" fill="white"/>
<defs>
<filter id="filter0_d_330_710" x="0" y="0" width="76" height="77" filterUnits="userSpaceOnUse" color-interpolation-filters="sRGB">
<feFlood flood-opacity="0" result="BackgroundImageFix"/>
<feColorMatrix in="SourceAlpha" type="matrix" values="0 0 0 0 0 0 0 0 0 0 0 0 0 0 0 0 0 0 127 0" result="hardAlpha"/>
<feOffset dy="1"/>
<feGaussianBlur stdDeviation="4"/>
<feComposite in2="hardAlpha" operator="out"/>
<feColorMatrix type="matrix" values="0 0 0 0 0 0 0 0 0 0 0 0 0 0 0 0 0 0 0.08 0"/>
<feBlend mode="normal" in2="BackgroundImageFix" result="effect1_dropShadow_330_710"/>
<feBlend mode="normal" in="SourceGraphic" in2="effect1_dropShadow_330_710" result="shape"/>
</filter>
</defs>
</svg>
