<svg width="203" height="203" viewBox="0 0 203 203" fill="none" xmlns="http://www.w3.org/2000/svg">
<path d="M72.4888 55.7289L65.5331 41.2606L67.2851 40.4183L70.3826 46.8612L78.0971 43.1524L74.9997 36.7095L76.7517 35.8672L83.7074 50.3355L81.9554 51.1778L78.8443 44.7066L71.1298 48.4155L74.2408 54.8866L72.4888 55.7289Z" fill="black"/>
<path d="M91.7645 48.8836C91.0114 49.0054 90.3049 48.9741 89.6451 48.7897C88.9845 48.6001 88.4298 48.2637 87.9811 47.7804C87.5316 47.292 87.2442 46.6609 87.119 45.8871C87.0089 45.2062 87.0537 44.6325 87.2536 44.1661C87.4526 43.6945 87.7568 43.3012 88.1664 42.9862C88.576 42.6711 89.0421 42.4105 89.5645 42.2042C90.0913 41.9919 90.6249 41.805 91.1652 41.6435C91.8724 41.4339 92.4466 41.2695 92.8879 41.1505C93.3335 41.0255 93.6499 40.887 93.8371 40.7349C94.0294 40.5821 94.1018 40.3586 94.0542 40.0646L94.0442 40.0027C93.9207 39.2392 93.6158 38.6797 93.1295 38.3243C92.6484 37.968 91.9874 37.8579 91.1465 37.9939C90.2747 38.1349 89.6221 38.4364 89.1886 38.8982C88.7551 39.3601 88.4728 39.8239 88.3417 40.2898L86.5083 39.9511C86.701 39.1789 87.0227 38.5498 87.4735 38.064C87.9286 37.5722 88.4502 37.1966 89.0382 36.9374C89.6305 36.6722 90.2259 36.4912 90.8243 36.3944C91.206 36.3327 91.652 36.3082 92.1623 36.3209C92.6769 36.3277 93.1888 36.4328 93.6982 36.6363C94.2127 36.8389 94.6702 37.1963 95.0706 37.7086C95.4711 38.2208 95.7477 38.9489 95.9004 39.893L97.1671 47.7239L95.3409 48.0193L95.0806 46.4098L94.9877 46.4248C94.9056 46.7027 94.7439 47.0121 94.5026 47.3529C94.2613 47.6937 93.9174 48.006 93.471 48.29C93.0246 48.5739 92.4558 48.7718 91.7645 48.8836ZM91.7778 47.1981C92.5 47.0813 93.0858 46.8409 93.5351 46.4771C93.9896 46.1124 94.3069 45.6853 94.4871 45.1956C94.6725 44.705 94.7251 44.2122 94.645 43.7169L94.3746 42.0455C94.3123 42.1509 94.1558 42.2635 93.9052 42.3835C93.659 42.4974 93.3702 42.6103 93.0389 42.7221C92.7119 42.8279 92.3919 42.9274 92.0787 43.0204C91.7699 43.1074 91.5195 43.1796 91.3276 43.2371C90.8631 43.3758 90.4357 43.5482 90.0455 43.7542C89.6597 43.9542 89.3625 44.2114 89.1539 44.5257C88.9497 44.834 88.8851 45.2203 88.9602 45.6846C89.0629 46.3191 89.3752 46.7609 89.8972 47.01C90.4235 47.253 91.0504 47.3157 91.7778 47.1981Z" fill="black"/>
<path d="M111.632 36.397L110.56 48.3893L108.717 48.2246L109.79 36.2323L111.632 36.397ZM110.403 42.0479L110.249 43.7655C109.819 43.8845 109.393 43.9854 108.971 44.0684C108.55 44.1461 108.109 44.1986 107.65 44.2258C107.192 44.2478 106.692 44.2345 106.151 44.1862C104.792 44.0647 103.735 43.6003 102.978 42.7929C102.226 41.9859 101.916 40.8485 102.047 39.3807L102.391 35.5394L104.233 35.7041L103.89 39.5454C103.835 40.1596 103.907 40.675 104.106 41.0915C104.305 41.508 104.596 41.8305 104.98 42.0589C105.363 42.2873 105.805 42.4238 106.304 42.4685C107.085 42.5383 107.797 42.5311 108.439 42.4468C109.087 42.3579 109.742 42.2249 110.403 42.0479Z" fill="black"/>
<path d="M124.669 45.535L124.088 47.1588L117.829 44.9206L118.41 43.2968L124.669 45.535ZM120.565 38.5732L116.511 49.9102L114.769 49.2873L118.823 37.9503L120.565 38.5732ZM127.74 41.1387L123.685 52.4757L121.944 51.8528L125.998 40.5158L127.74 41.1387Z" fill="black"/>
<path d="M130.649 53.2418L140.706 48.8573L142.463 50.0657L135.639 59.9853L134.114 58.9368L139.392 51.2646L129.361 55.6669L127.579 54.4408L134.403 44.5212L135.927 45.5697L130.649 53.2418Z" fill="black"/>
<path d="M145.141 65.319L146.266 66.9424C145.844 67.2864 145.644 67.7234 145.668 68.2536C145.695 68.788 145.916 69.3536 146.33 69.9506C146.753 70.5604 147.239 70.9959 147.789 71.257C148.343 71.5151 148.901 71.4491 149.464 71.0591C149.794 70.8298 150.026 70.5487 150.157 70.2158C150.293 69.8799 150.327 69.5162 150.259 69.1246C150.191 68.733 150.017 68.3353 149.737 67.9316L148.558 66.231L149.924 65.2842L151.103 66.9848C151.523 67.5904 151.97 67.9418 152.444 68.0389C152.922 68.1404 153.366 68.0483 153.779 67.7624C154.221 67.4558 154.467 67.0534 154.515 66.5553C154.569 66.0542 154.396 65.5159 153.997 64.9404C153.595 64.3607 153.129 63.9683 152.599 63.7634C152.073 63.5555 151.599 63.5823 151.176 63.8437L150.069 62.2461C150.613 61.8941 151.197 61.7312 151.819 61.7576C152.446 61.781 153.059 61.9786 153.661 62.3503C154.266 62.7191 154.807 63.2471 155.283 63.9342C155.766 64.6299 156.061 65.3182 156.171 65.9989C156.288 66.681 156.235 67.3061 156.012 67.874C155.796 68.4433 155.426 68.9095 154.902 69.2728C154.344 69.6598 153.784 69.8157 153.223 69.7404C152.662 69.6651 152.145 69.4418 151.671 69.0706L151.568 69.1421C151.802 69.5336 151.906 69.9412 151.882 70.3649C151.865 70.7899 151.738 71.1989 151.502 71.5917C151.27 71.9815 150.948 72.3193 150.536 72.6051C149.934 73.022 149.299 73.2241 148.629 73.2117C147.963 73.1963 147.313 72.9921 146.678 72.5992C146.047 72.2033 145.482 71.6447 144.982 70.9232C144.497 70.2231 144.176 69.5172 144.019 68.8054C143.867 68.0906 143.882 67.4286 144.064 66.8194C144.253 66.2115 144.612 65.7113 145.141 65.319Z" fill="black"/>
<path d="M150.405 80.8928C150.125 80.1829 150.005 79.486 150.045 78.802C150.089 78.1162 150.3 77.5026 150.676 76.9612C151.058 76.4179 151.613 76.0027 152.343 75.7155C152.984 75.4628 153.555 75.3844 154.053 75.4803C154.556 75.5742 155.005 75.7877 155.4 76.1208C155.795 76.4539 156.149 76.8537 156.462 77.3202C156.782 77.7897 157.078 78.2711 157.351 78.7646C157.706 79.4109 157.989 79.937 158.2 80.3428C158.417 80.7515 158.619 81.0311 158.808 81.1816C158.998 81.3369 159.232 81.36 159.509 81.2509L159.567 81.2279C160.287 80.9446 160.769 80.5275 161.012 79.9767C161.258 79.4307 161.225 78.7614 160.913 77.9688C160.589 77.1471 160.156 76.5736 159.612 76.2485C159.068 75.9234 158.555 75.7464 158.072 75.7176L158.012 73.8541C158.808 73.8778 159.491 74.0581 160.062 74.395C160.639 74.7349 161.117 75.1645 161.496 75.6838C161.881 76.206 162.185 76.7492 162.407 77.3132C162.548 77.673 162.667 78.1036 162.764 78.6048C162.867 79.109 162.873 79.6316 162.783 80.1726C162.694 80.7185 162.443 81.2416 162.028 81.742C161.612 82.2425 160.96 82.6678 160.07 83.0182L152.689 85.9242L152.011 84.2029L153.528 83.6056L153.494 83.5181C153.205 83.4971 152.868 83.405 152.484 83.2418C152.099 83.0787 151.721 82.8093 151.348 82.4336C150.976 82.058 150.661 81.5444 150.405 80.8928ZM152.054 80.5466C152.322 81.2274 152.682 81.7485 153.133 82.11C153.586 82.4764 154.071 82.6954 154.588 82.7671C155.107 82.8437 155.6 82.7901 156.066 82.6063L157.642 81.986C157.526 81.9476 157.382 81.8187 157.212 81.5994C157.048 81.3831 156.876 81.125 156.696 80.8251C156.523 80.5282 156.358 80.2367 156.2 79.9505C156.049 79.6673 155.926 79.4381 155.828 79.2629C155.594 78.8385 155.335 78.4577 155.05 78.1204C154.772 77.786 154.458 77.5504 154.106 77.4136C153.762 77.2798 153.37 77.299 152.933 77.4713C152.335 77.7068 151.97 78.1061 151.837 78.6691C151.712 79.2352 151.784 79.861 152.054 80.5466Z" fill="black"/>
<path d="M149.296 90.4937L165.744 88.6137L165.947 90.3893L164.047 90.6065L164.072 90.8246C164.295 90.9358 164.581 91.0925 164.93 91.2945C165.285 91.5011 165.616 91.8158 165.922 92.2384C166.234 92.6656 166.434 93.2686 166.523 94.0474C166.638 95.0546 166.488 95.9712 166.072 96.7972C165.656 97.6232 165.011 98.3044 164.136 98.841C163.261 99.3776 162.195 99.7177 160.939 99.8613C159.672 100.006 158.549 99.9161 157.571 99.5914C156.597 99.2661 155.813 98.7509 155.217 98.0459C154.626 97.3402 154.273 96.489 154.159 95.4921C154.072 94.7237 154.128 94.0939 154.33 93.6028C154.537 93.111 154.79 92.7218 155.088 92.4352C155.392 92.148 155.645 91.9245 155.848 91.7646L155.83 91.6088L149.506 92.3316L149.296 90.4937ZM159.97 91.1041C159.066 91.2073 158.284 91.4308 157.624 91.7745C156.969 92.1177 156.476 92.5659 156.145 93.1192C155.819 93.6719 155.698 94.3169 155.782 95.0542C155.87 95.8226 156.146 96.4406 156.609 96.9084C157.079 97.3807 157.674 97.7072 158.394 97.8878C159.12 98.0731 159.909 98.1171 160.76 98.0198C161.601 97.9236 162.344 97.7072 162.99 97.3704C163.641 97.0383 164.134 96.5901 164.469 96.0258C164.81 95.4661 164.936 94.7968 164.847 94.018C164.762 93.2704 164.5 92.6638 164.063 92.1984C163.631 91.7323 163.063 91.408 162.358 91.2256C161.659 91.0425 160.863 91.002 159.97 91.1041Z" fill="black"/>
<path d="M154.012 107.955C154.122 107.2 154.364 106.535 154.739 105.962C155.118 105.388 155.605 104.961 156.201 104.678C156.802 104.396 157.49 104.311 158.266 104.425C158.949 104.524 159.482 104.739 159.867 105.07C160.257 105.402 160.541 105.81 160.718 106.295C160.896 106.781 161.004 107.304 161.044 107.864C161.088 108.43 161.106 108.995 161.097 109.559C161.085 110.297 161.069 110.894 161.05 111.35C161.035 111.813 161.072 112.156 161.161 112.38C161.249 112.61 161.44 112.746 161.735 112.789L161.797 112.798C162.563 112.91 163.188 112.787 163.673 112.43C164.157 112.078 164.461 111.481 164.584 110.638C164.711 109.764 164.62 109.051 164.31 108.499C164 107.947 163.642 107.538 163.237 107.273L164.111 105.626C164.79 106.042 165.293 106.538 165.621 107.114C165.953 107.696 166.155 108.306 166.225 108.945C166.3 109.589 166.294 110.212 166.206 110.811C166.151 111.194 166.04 111.627 165.874 112.11C165.713 112.598 165.459 113.055 165.112 113.48C164.764 113.91 164.286 114.239 163.677 114.467C163.068 114.695 162.29 114.74 161.344 114.601L153.494 113.456L153.762 111.626L155.375 111.861L155.388 111.768C155.148 111.606 154.902 111.359 154.649 111.026C154.397 110.694 154.202 110.272 154.065 109.761C153.929 109.25 153.911 108.648 154.012 107.955ZM155.616 108.474C155.51 109.198 155.563 109.829 155.775 110.367C155.986 110.91 156.298 111.341 156.711 111.66C157.123 111.984 157.578 112.182 158.074 112.255L159.75 112.499C159.668 112.408 159.607 112.225 159.568 111.95C159.534 111.681 159.513 111.372 159.506 111.022C159.503 110.678 159.504 110.343 159.51 110.017C159.52 109.696 159.526 109.435 159.529 109.235C159.536 108.75 159.5 108.291 159.421 107.857C159.346 107.429 159.19 107.068 158.953 106.775C158.72 106.487 158.371 106.309 157.906 106.242C157.27 106.149 156.755 106.314 156.36 106.737C155.97 107.166 155.722 107.745 155.616 108.474Z" fill="black"/>
<path d="M164.231 132.118L162.827 132.549C162.64 132.074 162.575 131.588 162.631 131.09C162.687 130.592 162.817 130.058 163.023 129.486C163.228 128.915 163.46 128.282 163.718 127.585C164.013 126.802 164.092 126.085 163.958 125.433C163.823 124.781 163.485 124.181 162.945 123.631C162.405 123.082 161.674 122.569 160.752 122.091L160.691 122.236C161.228 122.903 161.52 123.638 161.569 124.44C161.618 125.242 161.483 126.024 161.163 126.786C160.8 127.653 160.27 128.349 159.574 128.873C158.878 129.398 158.048 129.695 157.083 129.767C156.118 129.838 155.053 129.629 153.886 129.14C152.725 128.653 151.809 128.026 151.14 127.258C150.468 126.495 150.059 125.646 149.912 124.712C149.769 123.784 149.905 122.824 150.321 121.832C150.737 120.839 151.336 120.067 152.116 119.516C152.902 118.967 153.844 118.679 154.943 118.653C156.047 118.628 157.283 118.903 158.652 119.477L159.838 119.974C162.31 121.011 164.009 122.216 164.934 123.59C165.858 124.969 165.987 126.513 165.321 128.223C165.089 128.829 164.871 129.363 164.665 129.827C164.46 130.29 164.311 130.706 164.218 131.076C164.126 131.445 164.13 131.792 164.231 132.118ZM151.854 122.474C151.573 123.144 151.5 123.791 151.635 124.414C151.768 125.042 152.086 125.615 152.589 126.132C153.097 126.651 153.768 127.085 154.602 127.434C155.411 127.774 156.156 127.93 156.836 127.904C157.514 127.882 158.104 127.69 158.607 127.329C159.11 126.967 159.504 126.447 159.788 125.767C159.997 125.271 160.099 124.79 160.096 124.324C160.093 123.858 159.986 123.417 159.776 123C159.565 122.583 159.256 122.198 158.849 121.846C158.439 121.499 157.933 121.193 157.33 120.928C156.086 120.407 154.969 120.281 153.977 120.551C152.986 120.821 152.278 121.462 151.854 122.474Z" fill="black"/>
<path d="M144.146 132.709C144.608 132.102 145.142 131.638 145.748 131.318C146.358 131.001 146.991 130.863 147.65 130.905C148.312 130.949 148.955 131.209 149.578 131.685C150.127 132.103 150.489 132.55 150.665 133.026C150.846 133.505 150.896 133.999 150.815 134.51C150.735 135.02 150.576 135.53 150.339 136.04C150.103 136.556 149.845 137.059 149.564 137.548C149.196 138.187 148.892 138.701 148.654 139.091C148.417 139.489 148.283 139.807 148.252 140.046C148.217 140.29 148.319 140.501 148.556 140.682L148.605 140.72C149.221 141.189 149.827 141.385 150.424 141.308C151.018 141.235 151.574 140.86 152.09 140.183C152.625 139.48 152.891 138.812 152.888 138.179C152.884 137.545 152.77 137.015 152.544 136.586L154.107 135.57C154.499 136.263 154.699 136.941 154.706 137.603C154.715 138.273 154.595 138.905 154.347 139.498C154.1 140.098 153.792 140.639 153.425 141.121C153.19 141.429 152.884 141.753 152.505 142.095C152.127 142.445 151.683 142.721 151.174 142.924C150.661 143.131 150.083 143.187 149.44 143.091C148.797 142.995 148.095 142.657 147.334 142.077L141.025 137.269L142.147 135.797L143.443 136.786L143.5 136.711C143.369 136.453 143.273 136.117 143.213 135.704C143.154 135.291 143.188 134.827 143.317 134.314C143.445 133.801 143.721 133.266 144.146 132.709ZM145.296 133.941C144.853 134.522 144.594 135.1 144.518 135.673C144.439 136.251 144.503 136.779 144.71 137.258C144.913 137.741 145.214 138.135 145.613 138.439L146.96 139.466C146.932 139.346 146.968 139.157 147.067 138.897C147.168 138.645 147.299 138.365 147.463 138.055C147.627 137.754 147.791 137.461 147.954 137.178C148.118 136.902 148.25 136.678 148.35 136.504C148.591 136.083 148.782 135.664 148.924 135.246C149.066 134.836 149.104 134.444 149.039 134.073C148.975 133.709 148.756 133.384 148.382 133.099C147.871 132.709 147.34 132.604 146.79 132.782C146.241 132.968 145.743 133.354 145.296 133.941Z" fill="black"/>
<path d="M145.237 147.624L146.337 148.952L138.802 155.191L137.702 153.862L140.745 151.343L134.166 143.397L135.591 142.217L142.17 150.163L145.237 147.624Z" fill="black"/>
<path d="M130.903 154.935L127.763 156.362C126.479 156.946 125.348 157.067 124.371 156.724C123.395 156.382 122.68 155.711 122.225 154.712C121.927 154.056 121.808 153.389 121.868 152.713C121.93 152.042 122.184 151.413 122.629 150.826C123.076 150.244 123.728 149.758 124.584 149.369L129.18 147.28L134.162 158.241L132.478 159.007L128.209 149.616L125.298 150.939C124.632 151.242 124.165 151.667 123.897 152.213C123.628 152.76 123.62 153.309 123.871 153.861C124.134 154.441 124.564 154.817 125.158 154.989C125.753 155.161 126.383 155.095 127.049 154.793L130.189 153.365L130.903 154.935ZM118.875 151.964L123.858 162.925L122.174 163.691L117.191 152.73L118.875 151.964Z" fill="black"/>
<path d="M113.208 153.561L114.879 165.484L110.004 166.167C108.721 166.347 107.661 166.201 106.824 165.727C105.987 165.253 105.502 164.54 105.369 163.588C105.267 162.863 105.403 162.272 105.777 161.813C106.151 161.36 106.665 161.016 107.318 160.782C106.87 160.781 106.421 160.686 105.972 160.496C105.518 160.306 105.123 160.013 104.788 159.617C104.454 159.226 104.243 158.717 104.155 158.091C104.069 157.48 104.148 156.912 104.391 156.388C104.634 155.863 105.026 155.42 105.566 155.059C106.107 154.699 106.78 154.462 107.588 154.348L113.208 153.561ZM111.704 155.481L107.823 156.025C107.191 156.114 106.718 156.333 106.403 156.683C106.088 157.033 105.967 157.467 106.04 157.985C106.126 158.601 106.372 159.06 106.779 159.361C107.186 159.668 107.705 159.778 108.336 159.689L112.218 159.145L111.704 155.481ZM112.44 160.729L109.304 161.168C108.812 161.237 108.4 161.364 108.067 161.548C107.734 161.737 107.493 161.971 107.342 162.251C107.187 162.536 107.134 162.855 107.183 163.207C107.254 163.709 107.518 164.073 107.977 164.299C108.437 164.53 109.035 164.594 109.769 164.491L112.906 164.051L112.44 160.729Z" fill="black"/>
<path d="M96.5296 154.222C97.2881 154.304 97.9612 154.521 98.5487 154.873C99.1357 155.231 99.5817 155.702 99.8866 156.287C100.191 156.876 100.301 157.561 100.217 158.34C100.144 159.026 99.9486 159.568 99.6326 159.965C99.316 160.367 98.9185 160.666 98.4402 160.861C97.9619 161.057 97.4435 161.185 96.8851 161.246C96.3209 161.311 95.757 161.35 95.1932 161.363C94.4557 161.378 93.8585 161.385 93.4014 161.383C92.9386 161.386 92.5968 161.436 92.3761 161.533C92.1502 161.629 92.0214 161.826 91.9895 162.122L91.9828 162.184C91.9 162.953 92.0461 163.573 92.4211 164.045C92.7909 164.516 93.3992 164.797 94.2461 164.888C95.1242 164.982 95.8333 164.864 96.3735 164.533C96.9137 164.203 97.3086 163.83 97.5582 163.415L99.2369 164.227C98.8468 164.92 98.3702 165.442 97.807 165.791C97.238 166.145 96.6357 166.37 96.0001 166.464C95.3587 166.563 94.7367 166.58 94.134 166.516C93.7495 166.474 93.3129 166.38 92.8242 166.233C92.3297 166.09 91.8637 165.853 91.4263 165.522C90.9837 165.191 90.637 164.725 90.3862 164.125C90.1355 163.525 90.0613 162.75 90.1636 161.799L91.0127 153.912L92.8519 154.11L92.6774 155.731L92.771 155.741C92.9236 155.495 93.1614 155.239 93.4842 154.975C93.8071 154.71 94.2213 154.499 94.7268 154.344C95.2324 154.188 95.8333 154.147 96.5296 154.222ZM96.0711 155.844C95.3437 155.766 94.7152 155.843 94.1857 156.075C93.6509 156.306 93.2319 156.635 92.9287 157.059C92.6202 157.483 92.4392 157.945 92.3855 158.443L92.2043 160.127C92.2923 160.042 92.4729 159.974 92.7463 159.925C93.0139 159.88 93.3223 159.848 93.6714 159.827C94.0147 159.812 94.3496 159.801 94.6762 159.794C94.9971 159.791 95.2576 159.788 95.4579 159.783C95.9426 159.772 96.4003 159.719 96.8311 159.624C97.2561 159.533 97.6107 159.363 97.895 159.115C98.1734 158.872 98.3378 158.517 98.3882 158.049C98.457 157.41 98.2726 156.901 97.835 156.523C97.3917 156.149 96.8037 155.923 96.0711 155.844Z" fill="black"/>
<path d="M84.3253 162.886L83.7589 164.515L74.5191 161.302L75.0856 159.673L78.817 160.971L82.2054 151.228L83.9527 151.835L80.5643 161.578L84.3253 162.886Z" fill="black"/>
<path d="M70.9993 154.474L68.0831 152.632C66.8901 151.879 66.1688 151 65.9192 149.995C65.6697 148.991 65.8378 148.025 66.4238 147.097C66.8088 146.487 67.3004 146.022 67.8985 145.701C68.4938 145.385 69.1588 145.252 69.8937 145.302C70.6257 145.356 71.3894 145.635 72.1847 146.137L76.453 148.832L70.0243 159.012L68.4602 158.025L73.9681 149.303L71.264 147.595C70.6454 147.204 70.034 147.047 69.4299 147.123C68.8257 147.199 68.3618 147.493 68.0382 148.005C67.6978 148.544 67.619 149.11 67.8018 149.701C67.9846 150.292 68.3853 150.783 69.0039 151.174L71.9201 153.015L70.9993 154.474Z" fill="black"/>
<path d="M58.2762 132.634C58.9464 133.542 59.3092 134.482 59.3644 135.455C59.4196 136.427 59.2012 137.368 58.7092 138.277C58.2173 139.185 57.4877 139.996 56.5207 140.71C55.5368 141.436 54.5351 141.896 53.5156 142.09C52.4888 142.283 51.5225 142.21 50.6169 141.872C49.7039 141.532 48.9247 140.925 48.2793 140.051C47.7766 139.37 47.4497 138.663 47.2985 137.93C47.1474 137.197 47.1701 136.489 47.3667 135.804C47.5632 135.12 47.9332 134.513 48.4766 133.982L49.5751 135.47C49.2174 135.91 49.0125 136.451 48.9606 137.093C48.9013 137.734 49.1137 138.383 49.5977 139.039C50.026 139.619 50.5528 140.016 51.1783 140.23C51.7964 140.443 52.4688 140.469 53.1954 140.31C53.9147 140.149 54.6401 139.799 55.3717 139.259C56.1201 138.707 56.685 138.108 57.0662 137.463C57.4444 136.813 57.6271 136.159 57.6144 135.499C57.5986 134.836 57.3735 134.209 56.9391 133.621C56.6536 133.234 56.3272 132.932 55.9599 132.716C55.5926 132.5 55.2022 132.376 54.7885 132.344C54.3749 132.311 53.9573 132.379 53.5359 132.547L52.4374 131.059C53.0713 130.721 53.74 130.549 54.4434 130.543C55.1396 130.536 55.8223 130.704 56.4917 131.048C57.1538 131.39 57.7486 131.919 58.2762 132.634Z" fill="black"/>
<path d="M51.7463 120.812C52.18 121.888 52.3166 122.912 52.1562 123.884C51.9889 124.853 51.5614 125.721 50.8734 126.488C50.1787 127.253 49.2594 127.866 48.1156 128.327C46.9717 128.788 45.8796 128.986 44.8392 128.921C43.7919 128.853 42.8721 128.542 42.0798 127.988C41.2806 127.431 40.6779 126.648 40.2715 125.64C40.0371 125.059 39.9025 124.445 39.8678 123.8C39.8331 123.155 39.9401 122.512 40.1887 121.871C40.4325 121.231 40.855 120.63 41.4561 120.067C42.0572 119.503 42.8788 119.011 43.9209 118.591L44.6479 118.298L48.1176 126.906L46.6345 127.504L43.8681 120.641C43.238 120.895 42.7266 121.248 42.3338 121.699C41.9391 122.145 41.6915 122.656 41.5912 123.232C41.4888 123.803 41.5627 124.399 41.8128 125.019C42.0883 125.702 42.4962 126.225 43.0368 126.588C43.5705 126.947 44.16 127.152 44.8055 127.202C45.4509 127.251 46.0814 127.152 46.697 126.904L47.6857 126.506C48.5291 126.166 49.1854 125.732 49.6546 125.205C50.1171 124.675 50.3955 124.087 50.4898 123.44C50.5793 122.795 50.4844 122.127 50.205 121.433C50.0233 120.983 49.7962 120.601 49.5236 120.288C49.2443 119.973 48.9225 119.733 48.5581 119.57C48.189 119.409 47.7812 119.334 47.3348 119.345L47.132 117.5C47.7645 117.448 48.3771 117.542 48.9697 117.782C49.5574 118.024 50.0921 118.4 50.5738 118.91C51.0507 119.422 51.4415 120.056 51.7463 120.812Z" fill="black"/>
<path d="M45.8442 111.183L35.8868 106.577L35.6235 104.462L47.5714 102.975L47.7999 104.81L38.5589 105.961L48.5125 110.535L48.7797 112.682L36.8317 114.169L36.6033 112.334L45.8442 111.183ZM32.0552 108.287L31.8422 106.575C32.6823 106.471 33.4056 106.676 34.012 107.19C34.6184 107.704 34.9836 108.459 35.1075 109.455C35.2295 110.435 35.0596 111.249 34.5977 111.896C34.1352 112.538 33.4839 112.911 32.6439 113.016L32.4309 111.305C32.8354 111.254 33.1767 111.099 33.4549 110.838C33.7325 110.571 33.8374 110.166 33.7696 109.621C33.7018 109.077 33.5004 108.707 33.1654 108.512C32.8298 108.311 32.4597 108.236 32.0552 108.287Z" fill="black"/>
<path d="M36.9078 88.0855L48.8435 89.6674L48.6005 91.5012L36.6647 89.9194L36.9078 88.0855ZM42.5012 89.5542L44.2107 89.7808C44.3112 90.2159 44.3939 90.6459 44.4588 91.0709C44.5185 91.4953 44.5522 91.9373 44.5598 92.3969C44.5623 92.8559 44.5278 93.3547 44.4564 93.8935C44.2772 95.2456 43.7681 96.2825 42.9292 97.0042C42.0909 97.7207 40.9414 97.9821 39.4805 97.7885L35.6573 97.2818L35.9004 95.4479L39.7235 95.9547C40.3348 96.0357 40.8528 95.9857 41.2774 95.8048C41.702 95.6238 42.0366 95.3466 42.2811 94.9731C42.5257 94.5996 42.6809 94.1642 42.7468 93.6669C42.8498 92.8898 42.8729 92.1786 42.8161 91.5332C42.7548 90.882 42.6498 90.2223 42.5012 89.5542Z" fill="black"/>
<path d="M51.5156 82.3412C51.2324 83.0497 50.8419 83.6393 50.3441 84.11C49.8415 84.5788 49.2676 84.8811 48.6223 85.0171C47.9722 85.1511 47.2832 85.0726 46.5553 84.7816C45.9148 84.5255 45.4461 84.1918 45.149 83.7804C44.8472 83.3671 44.6666 82.9037 44.6073 82.3904C44.5481 81.8771 44.5645 81.3433 44.6566 80.7892C44.7458 80.2283 44.8602 79.6747 44.9998 79.1283C45.1841 78.4141 45.3388 77.8372 45.4639 77.3976C45.5861 76.9512 45.6302 76.6086 45.5962 76.3699C45.5641 76.1263 45.4098 75.9493 45.1332 75.8387L45.075 75.8154C44.3568 75.5283 43.7203 75.5017 43.1652 75.7357C42.6121 75.9648 42.1775 76.4748 41.8613 77.2657C41.5334 78.0857 41.4559 78.8004 41.6287 79.4098C41.8015 80.0192 42.0539 80.5 42.3859 80.8522L41.1517 82.2498C40.5888 81.687 40.2151 81.0874 40.0306 80.4508C39.8432 79.8075 39.7898 79.167 39.8702 78.5295C39.9477 77.8851 40.099 77.2815 40.3241 76.7186C40.4676 76.3596 40.6762 75.9646 40.9498 75.5337C41.2204 75.096 41.5741 74.7112 42.0107 74.3792C42.4493 74.0424 42.9912 73.8342 43.6365 73.7545C44.2818 73.6748 45.0485 73.8125 45.9364 74.1675L53.3022 77.1125L52.6155 78.8302L51.1015 78.2249L51.0666 78.3122C51.2627 78.5257 51.4447 78.8236 51.6126 79.2059C51.7806 79.5882 51.8714 80.0438 51.885 80.5726C51.8987 81.1015 51.7756 81.691 51.5156 82.3412ZM50.0773 81.4623C50.3489 80.783 50.4444 80.1571 50.3638 79.5845C50.2851 79.0072 50.0822 78.5152 49.7551 78.1087C49.4299 77.6973 49.0345 77.3984 48.5686 77.2122L46.9965 76.5836C47.0547 76.6913 47.0708 76.8835 47.0446 77.1601C47.0156 77.4298 46.9637 77.7355 46.889 78.0771C46.8114 78.4119 46.7319 78.7375 46.6505 79.0538C46.5661 79.3634 46.4992 79.6152 46.4497 79.8093C46.3295 80.279 46.2572 80.7342 46.233 81.1747C46.2059 81.6085 46.2735 81.9957 46.4356 82.3362C46.5948 82.67 46.8927 82.9242 47.3294 83.0988C47.9263 83.3375 48.4658 83.2971 48.948 82.9778C49.4273 82.6516 49.8038 82.1465 50.0773 81.4623Z" fill="black"/>
<path d="M58.3769 69.6809C57.7124 70.5934 56.9248 71.2222 56.014 71.5675C55.1032 71.9127 54.1405 71.9874 53.126 71.7916C52.1114 71.5958 51.1183 71.1441 50.1467 70.4366C49.1582 69.7167 48.4182 68.8998 47.9266 67.9859C47.4338 67.0646 47.2125 66.1213 47.2627 65.1558C47.3117 64.183 47.6562 63.2573 48.296 62.3786C48.7944 61.6943 49.3702 61.1698 50.0236 60.8052C50.677 60.4406 51.3595 60.2492 52.071 60.2308C52.7826 60.2124 53.4733 60.3824 54.1431 60.7409L53.0541 62.2364C52.5275 62.0274 51.9501 61.9948 51.3218 62.1385C50.6924 62.2748 50.1377 62.6725 49.6578 63.3315C49.2333 63.9145 49.0131 64.5364 48.9974 65.1972C48.9804 65.8507 49.1573 66.5 49.5281 67.1449C49.8977 67.7825 50.45 68.369 51.185 68.9042C51.937 69.4518 52.6779 69.8103 53.4078 69.9798C54.1407 70.1451 54.8198 70.1225 55.445 69.912C56.0734 69.6972 56.6028 69.2941 57.0335 68.7027C57.3165 68.3141 57.5058 67.9121 57.6014 67.4968C57.6969 67.0816 57.6979 66.6718 57.6044 66.2676C57.5109 65.8633 57.3206 65.4855 57.0334 65.1342L58.1224 63.6388C58.6354 64.1416 59.0006 64.7276 59.2181 65.3966C59.4343 66.0584 59.4792 66.7601 59.3528 67.502C59.2251 68.2365 58.8998 68.9628 58.3769 69.6809Z" fill="black"/>
<path d="M54.406 49.8479L62.1738 58.3814L60.8458 59.6238L52.8489 51.3045L54.406 49.8479ZM64.6799 62.3915C64.3975 62.6557 64.0605 62.7812 63.6691 62.7682C63.2776 62.7551 62.9498 62.6074 62.6856 62.325C62.4214 62.0426 62.2959 61.7056 62.3089 61.3142C62.322 60.9227 62.4697 60.5949 62.7521 60.3307C63.0345 60.0665 63.3715 59.941 63.7629 59.954C64.1544 59.9671 64.4822 60.1148 64.7464 60.3972C64.9213 60.5842 65.0343 60.8006 65.0852 61.0463C65.14 61.2884 65.1338 61.5304 65.0666 61.7722C64.9996 62.0066 64.8707 62.213 64.6799 62.3915Z" fill="black"/>
<path fill-rule="evenodd" clip-rule="evenodd" d="M107.775 87.75H84.0001V84.25H113.75V114H110.25V90.2249L85.2376 115.237L82.7627 112.763L107.775 87.75Z" fill="black"/>
</svg>
