<svg width="154" height="31" viewBox="0 0 154 31" fill="none" xmlns="http://www.w3.org/2000/svg">
<path d="M15.2499 2.60024C18.6252 2.60024 21.5023 3.78972 23.8813 6.1687C26.2602 8.54768 27.4497 11.4248 27.4497 14.8001C27.4497 18.1754 26.2602 21.0526 23.8813 23.4315C21.5023 25.8105 18.6252 27 15.2499 27H3.04997V24.9565H15.2499C17.0798 24.9565 18.7777 24.5092 20.3433 23.6145C21.909 22.6995 23.1391 21.4592 24.0338 19.8936C24.9488 18.3279 25.4063 16.6301 25.4063 14.8001C25.4063 12.9701 24.9488 11.2723 24.0338 9.70667C23.1391 8.14101 21.909 6.91086 20.3433 6.0162C18.7777 5.10121 17.0798 4.64372 15.2499 4.64372H3.04997V2.60024H15.2499ZM66.4239 14.8001V2.60024H68.4674V14.8001C68.4674 18.1754 67.2779 21.0526 64.8989 23.4315C62.5199 25.8105 59.6428 27 56.2675 27C52.8922 27 50.0151 25.8105 47.6361 23.4315C45.2571 21.0526 44.0676 18.1754 44.0676 14.8001V2.60024H46.1111V14.8001C46.1111 16.6301 46.5584 18.3279 47.4531 19.8936C48.3681 21.4592 49.6084 22.6995 51.174 23.6145C52.7397 24.5092 54.4375 24.9565 56.2675 24.9565C58.0975 24.9565 59.7953 24.5092 61.3609 23.6145C62.9266 22.6995 64.1567 21.4592 65.0514 19.8936C65.9664 18.3279 66.4239 16.6301 66.4239 14.8001ZM88.6537 6.1687C91.0327 3.78972 93.9098 2.60024 97.2851 2.60024C100.66 2.60024 103.538 3.78972 105.917 6.1687C108.296 8.54768 109.485 11.4248 109.485 14.8001V27H107.442V14.8001C107.442 12.9701 106.984 11.2723 106.069 9.70667C105.174 8.14101 103.944 6.91086 102.379 6.0162C100.813 5.10121 99.1151 4.64372 97.2851 4.64372C95.4551 4.64372 93.7573 5.10121 92.1917 6.0162C90.626 6.91086 89.3857 8.14101 88.4707 9.70667C87.5761 11.2723 87.1287 12.9701 87.1287 14.8001V27H85.0852V14.8001C85.0852 11.4248 86.2747 8.54768 88.6537 6.1687ZM138.303 2.60024H150.503V4.64372H138.303C136.473 4.64372 134.775 5.10121 133.209 6.0162C131.644 6.91086 130.403 8.14101 129.488 9.70667C128.594 11.2723 128.146 12.9701 128.146 14.8001C128.146 16.6301 128.594 18.3279 129.488 19.8936C130.403 21.4592 131.644 22.6995 133.209 23.6145C134.775 24.5092 136.473 24.9565 138.303 24.9565H150.503V27H138.303C134.927 27 132.05 25.8105 129.671 23.4315C127.292 21.0526 126.103 18.1754 126.103 14.8001C126.103 11.4248 127.292 8.54768 129.671 6.1687C132.05 3.78972 134.927 2.60024 138.303 2.60024ZM140.194 15.8981C139.909 15.5931 139.767 15.2271 139.767 14.8001C139.767 14.3731 139.909 14.0173 140.194 13.7326C140.499 13.4276 140.865 13.2751 141.292 13.2751C141.719 13.2751 142.075 13.4276 142.359 13.7326C142.664 14.0173 142.817 14.3731 142.817 14.8001C142.817 15.2271 142.664 15.5931 142.359 15.8981C142.075 16.1828 141.719 16.3251 141.292 16.3251C140.865 16.3251 140.499 16.1828 140.194 15.8981Z" fill="#1C1C1C"/>
<ellipse cx="141.003" cy="15.0151" rx="2.58074" ry="1.87691" fill="white"/>
<line x1="3.75388" y1="2.81543" x2="3.75388" y2="27.2152" stroke="#1C1C1C" stroke-width="1.87691"/>
<line x1="126.222" y1="15.4844" x2="150.152" y2="15.4844" stroke="#1C1C1C" stroke-width="1.87691"/>
</svg>
