<svg width="36" height="34" viewBox="0 0 36 34" fill="none" xmlns="http://www.w3.org/2000/svg">
<g clip-path="url(#clip0_85_2880)">
<path fill-rule="evenodd" clip-rule="evenodd" d="M23.3351 16.2149C23.6033 16.4734 23.7539 16.824 23.7539 17.1896C23.7539 17.5552 23.6033 17.9058 23.3351 18.1643L15.2432 25.9634C14.9735 26.2145 14.6121 26.3535 14.2371 26.3503C13.862 26.3472 13.5033 26.2022 13.2381 25.9466C12.9728 25.691 12.8224 25.3452 12.8191 24.9837C12.8159 24.6222 12.9601 24.274 13.2206 24.0139L20.3012 17.1896L13.2206 10.3652C12.9601 10.1052 12.8159 9.75697 12.8191 9.39549C12.8224 9.03401 12.9728 8.68822 13.2381 8.43261C13.5033 8.17699 13.862 8.032 14.2371 8.02886C14.6121 8.02572 14.9735 8.16468 15.2432 8.41581L23.3351 16.2149Z" fill="#A29EB6"/>
</g>
<defs>
<clipPath id="clip0_85_2880">
<rect width="33.0878" height="34.33" fill="white" transform="matrix(0 1 -1 0 35.1992 0.645508)"/>
</clipPath>
</defs>
</svg>
