<svg width="27" height="21" viewBox="0 0 27 21" fill="none" xmlns="http://www.w3.org/2000/svg">
<path d="M3.1573 2C3.1573 1.36084 2.63916 0.842699 2 0.842699C1.36084 0.842699 0.842699 1.36084 0.842699 2H3.1573ZM0.842699 2L0.842699 20.5168H3.1573L3.1573 2H0.842699Z" fill="#A29EB6"/>
<path d="M4.08744 13.066C3.58274 13.4645 3.52249 14.1663 3.95286 14.6336C4.38323 15.1008 5.14126 15.1566 5.64596 14.7582L4.08744 13.066ZM5.64596 14.7582L13.4047 8.63269L11.8462 6.94055L4.08744 13.066L5.64596 14.7582Z" fill="#A29EB6"/>
<path d="M13.6463 7.15878C13.2817 6.6458 12.5369 6.50361 11.9829 6.84118C11.4288 7.17876 11.2752 7.86827 11.6398 8.38126L13.6463 7.15878ZM11.6398 8.38126L14.9786 13.0787L16.9851 11.8562L13.6463 7.15878L11.6398 8.38126Z" fill="#A29EB6"/>
<path d="M15.2675 11.9686C14.7985 12.4029 14.7985 13.1069 15.2675 13.5411C15.7365 13.9754 16.4969 13.9754 16.9659 13.5411L15.2675 11.9686ZM16.9659 13.5411L25.7159 5.44002L24.0175 3.86753L15.2675 11.9686L16.9659 13.5411Z" fill="#A29EB6"/>
<path d="M22.0005 3.15715C21.3613 3.15715 20.8432 3.67529 20.8432 4.31445C20.8432 4.95361 21.3613 5.47175 22.0005 5.47175V3.15715ZM22.0005 5.47175H25.7505V3.15715H22.0005V5.47175Z" fill="#A29EB6"/>
<line x1="2" y1="19.3593" x2="27" y2="19.3593" stroke="#A29EB6" stroke-width="2.3146"/>
</svg>
