<svg width="30" height="30" viewBox="0 0 30 30" fill="none" xmlns="http://www.w3.org/2000/svg">
<path d="M5.30371 21.9051C5.30371 20.6164 5.81563 19.3805 6.72686 18.4693C7.63809 17.5581 8.87398 17.0461 10.1627 17.0461H19.8805C21.1692 17.0461 22.4051 17.5581 23.3163 18.4693C24.2276 19.3805 24.7395 20.6164 24.7395 21.9051C24.7395 22.5494 24.4835 23.1674 24.0279 23.623C23.5723 24.0786 22.9544 24.3346 22.31 24.3346H7.73318C7.08885 24.3346 6.4709 24.0786 6.01529 23.623C5.55967 23.1674 5.30371 22.5494 5.30371 21.9051Z" stroke="#A29EB6" stroke-width="1.8221" stroke-linejoin="round"/>
<path d="M15.0212 12.1871C17.0338 12.1871 18.6654 10.5555 18.6654 8.54289C18.6654 6.53025 17.0338 4.89868 15.0212 4.89868C13.0085 4.89868 11.377 6.53025 11.377 8.54289C11.377 10.5555 13.0085 12.1871 15.0212 12.1871Z" stroke="#A29EB6" stroke-width="1.8221"/>
</svg>
