<svg width="24" height="24" viewBox="0 0 24 24" fill="none" xmlns="http://www.w3.org/2000/svg">
<path d="M11.7407 20.8716C12.1807 20.8716 12.5542 20.5146 12.5542 20.083V12.7534H19.668C20.0996 12.7534 20.4731 12.3799 20.4731 11.9399C20.4731 11.4917 20.0996 11.1265 19.668 11.1265H12.5542V3.78857C12.5542 3.35693 12.1807 3 11.7407 3C11.2925 3 10.9272 3.35693 10.9272 3.78857V11.1265H3.81348C3.38184 11.1265 3 11.4917 3 11.9399C3 12.3799 3.38184 12.7534 3.81348 12.7534H10.9272V20.083C10.9272 20.5146 11.2925 20.8716 11.7407 20.8716Z" fill="#FFD000"/>
</svg>
