<svg width="25" height="20" viewBox="0 0 25 20" fill="none" xmlns="http://www.w3.org/2000/svg">
<path d="M3.64533 5.78862C3.64554 4.79057 3.90129 3.80953 4.38776 2.94069C4.87423 2.07185 5.57491 1.34472 6.42179 0.829859C7.26867 0.315002 8.23301 0.0299022 9.2212 0.00222685C10.2094 -0.0254485 11.1879 0.20524 12.0618 0.671907C12.9356 1.13857 13.6751 1.82537 14.2086 2.66565C14.742 3.50592 15.0512 4.47114 15.1062 5.46764C15.1612 6.46414 14.9602 7.45808 14.5225 8.35299C14.0849 9.24791 13.4255 10.0134 12.6085 10.5752C14.368 11.2268 15.8942 12.395 16.9906 13.9296C18.087 15.4643 18.7033 17.295 18.7604 19.1863C18.758 19.3902 18.6776 19.5853 18.5361 19.7307C18.3945 19.8762 18.2028 19.9609 18.0009 19.967C17.799 19.9731 17.6026 19.9002 17.4526 19.7636C17.3027 19.6269 17.2109 19.437 17.1964 19.2336C17.1343 17.1824 16.2835 15.2362 14.8244 13.8074C13.3653 12.3787 11.4124 11.5796 9.37971 11.5796C7.347 11.5796 5.39416 12.3787 3.93502 13.8074C2.47589 15.2362 1.62514 17.1824 1.56304 19.2336C1.5526 19.4398 1.46261 19.6336 1.31233 19.7736C1.16206 19.9136 0.963462 19.9886 0.759086 19.9825C0.554711 19.9765 0.360812 19.8898 0.21893 19.7412C0.0770479 19.5926 -0.00153268 19.3937 2.26558e-05 19.1873C0.0569038 17.2959 0.673202 15.4649 1.76959 13.9301C2.86597 12.3953 4.39227 11.2268 6.152 10.5752C5.37944 10.044 4.74719 9.33022 4.3103 8.49596C3.87342 7.66171 3.64514 6.73229 3.64533 5.78862ZM9.38023 1.57784C8.27405 1.57784 7.21319 2.02147 6.431 2.81114C5.64882 3.60082 5.20939 4.67185 5.20939 5.78862C5.20939 6.90538 5.64882 7.97641 6.431 8.76609C7.21319 9.55576 8.27405 9.9994 9.38023 9.9994C10.4864 9.9994 11.5473 9.55576 12.3295 8.76609C13.1116 7.97641 13.5511 6.90538 13.5511 5.78862C13.5511 4.67185 13.1116 3.60082 12.3295 2.81114C11.5473 2.02147 10.4864 1.57784 9.38023 1.57784ZM18.0243 5.78862C17.8707 5.78862 17.7198 5.79914 17.5717 5.8202C17.4684 5.83888 17.3623 5.83636 17.2599 5.81277C17.1575 5.78919 17.0609 5.74502 16.9758 5.68291C16.8907 5.6208 16.8188 5.54202 16.7645 5.45127C16.7102 5.36052 16.6746 5.25965 16.6597 5.15469C16.6449 5.04973 16.6511 4.94283 16.6781 4.84035C16.705 4.73788 16.7522 4.64194 16.8167 4.55825C16.8811 4.47457 16.9617 4.40485 17.0534 4.35327C17.1452 4.30168 17.2463 4.26928 17.3507 4.258C18.3877 4.10662 19.4452 4.30768 20.3567 4.82953C21.2681 5.35138 21.9819 6.16439 22.3855 7.14062C22.7892 8.11685 22.8598 9.20087 22.5864 10.2221C22.3129 11.2433 21.7109 12.1437 20.875 12.7817C22.1038 13.3371 23.147 14.2397 23.879 15.3804C24.6109 16.5211 25.0002 17.8513 25 19.2105C25 19.4199 24.9176 19.6207 24.7709 19.7688C24.6243 19.9168 24.4254 20 24.218 20C24.0106 20 23.8117 19.9168 23.665 19.7688C23.5183 19.6207 23.4359 19.4199 23.4359 19.2105C23.4363 18.0357 23.0616 16.8921 22.3674 15.9493C21.6732 15.0065 20.6965 14.3147 19.5821 13.9765L19.0253 13.808V12.0437L19.4528 11.8237C20.0865 11.4996 20.5935 10.9694 20.8921 10.3186C21.1906 9.66783 21.2631 8.93447 21.098 8.23693C20.9329 7.53939 20.5398 6.91838 19.9821 6.47416C19.4244 6.02994 18.7347 5.78843 18.0243 5.78862Z" fill="#A29EB6"/>
</svg>
