<svg width="30" height="30" viewBox="0 0 30 30" fill="none" xmlns="http://www.w3.org/2000/svg">
<path d="M4.30273 25.53L7.33957 22.4932M23.1311 6.70163L26.168 3.66479M12.8059 13.3827L10.3764 15.8122M16.4501 17.0269L14.0206 19.4564M9.16168 14.5974L15.2354 20.6711L13.4133 22.4932C13.0168 22.9027 12.5429 23.2292 12.019 23.4537C11.4952 23.6782 10.9319 23.7962 10.362 23.8008C9.79205 23.8055 9.22691 23.6966 8.69948 23.4807C8.17205 23.2647 7.69287 22.9459 7.28986 22.5429C6.88686 22.1399 6.56808 21.6607 6.35212 21.1333C6.13615 20.6059 6.02731 20.0407 6.03194 19.4708C6.03656 18.9009 6.15457 18.3376 6.37907 17.8137C6.60357 17.2899 6.93008 16.8159 7.33957 16.4195L9.16168 14.5974ZM21.309 14.5974L15.2354 8.52374L17.0575 6.70163C17.4539 6.29214 17.9278 5.96563 18.4517 5.74113C18.9755 5.51663 19.5388 5.39862 20.1087 5.394C20.6787 5.38937 21.2438 5.49821 21.7712 5.71418C22.2987 5.93014 22.7779 6.24892 23.1809 6.65192C23.5839 7.05493 23.9026 7.53411 24.1186 8.06154C24.3346 8.58897 24.4434 9.15411 24.4388 9.72403C24.4342 10.2939 24.3162 10.8572 24.0917 11.3811C23.8672 11.905 23.5406 12.3789 23.1311 12.7753L21.309 14.5974Z" stroke="#A29EB6" stroke-width="2.42947" stroke-linecap="round" stroke-linejoin="round"/>
</svg>
