<svg width="357" height="74" viewBox="0 0 477 94" fill="none" xmlns="http://www.w3.org/2000/svg">
<path d="M47.2885 9.33846C68.0954 9.33846 85.1192 26.3623 85.1192 47.1692C85.1192 68.0707 68.0954 85 47.2885 85H9.45769V78.6633H47.2885C64.596 78.6633 78.688 64.5714 78.688 47.1692C78.688 29.8617 64.596 15.7697 47.2885 15.7697H9.45769V9.33846H47.2885ZM205.88 47.1692V9.33846H212.311V47.1692C212.311 68.0707 195.288 85 174.481 85C153.579 85 136.65 68.0707 136.65 47.1692V9.33846H142.986V47.1692C142.986 64.5714 157.078 78.6633 174.481 78.6633C191.788 78.6633 205.88 64.5714 205.88 47.1692ZM301.673 9.33846C322.48 9.33846 339.503 26.3623 339.503 47.1692V85H333.072V47.1692C333.072 29.8617 318.98 15.7697 301.673 15.7697C284.271 15.7697 270.179 29.8617 270.179 47.1692V85H263.842V47.1692C263.842 26.3623 280.771 9.33846 301.673 9.33846ZM428.865 9.33846H466.696V15.7697H428.865C411.463 15.7697 397.371 29.8617 397.371 47.1692C397.371 64.5714 411.463 78.6633 428.865 78.6633H466.696V85H428.865C407.963 85 391.034 68.0707 391.034 47.1692C391.034 26.3623 407.963 9.33846 428.865 9.33846ZM433.31 47.1692C433.31 44.6157 435.485 42.4404 438.039 42.4404C440.687 42.4404 442.862 44.6157 442.862 47.1692C442.862 49.8174 440.687 51.9927 438.039 51.9927C435.485 51.9927 433.31 49.8174 433.31 47.1692Z" fill="#1C1C1C"/>
<ellipse cx="437.236" cy="46.561" rx="8.00266" ry="5.82012" fill="white"/>
<line x1="11.6405" y1="8.73019" x2="11.6405" y2="84.3917" stroke="#1C1C1C" stroke-width="5.82012"/>
<line x1="391.403" y1="48.016" x2="465.609" y2="48.016" stroke="#1C1C1C" stroke-width="5.82012"/>
</svg>
