<svg width="22" height="22" viewBox="0 0 22 22" fill="none" xmlns="http://www.w3.org/2000/svg">
<path d="M7.52923 1.8374H14.9452C17.7703 1.8374 20.0657 4.13282 20.0657 6.95795V14.3739C20.0657 15.732 19.5263 17.0344 18.566 17.9947C17.6057 18.955 16.3032 19.4944 14.9452 19.4944H7.52923C4.70411 19.4944 2.40869 17.199 2.40869 14.3739V6.95795C2.40869 5.59989 2.94818 4.29746 3.90846 3.33717C4.86875 2.37689 6.17118 1.8374 7.52923 1.8374ZM7.35266 3.60311C6.50973 3.60311 5.70133 3.93796 5.10529 4.534C4.50925 5.13004 4.1744 5.93845 4.1744 6.78137V14.5505C4.1744 16.3073 5.59579 17.7287 7.35266 17.7287H15.1218C15.9647 17.7287 16.7731 17.3939 17.3691 16.7978C17.9652 16.2018 18.3 15.3934 18.3 14.5505V6.78137C18.3 5.0245 16.8786 3.60311 15.1218 3.60311H7.35266ZM15.8722 4.92739C16.1649 4.92739 16.4456 5.04365 16.6525 5.25061C16.8595 5.45757 16.9758 5.73827 16.9758 6.03095C16.9758 6.32363 16.8595 6.60433 16.6525 6.81129C16.4456 7.01825 16.1649 7.13452 15.8722 7.13452C15.5795 7.13452 15.2988 7.01825 15.0918 6.81129C14.8849 6.60433 14.7686 6.32363 14.7686 6.03095C14.7686 5.73827 14.8849 5.45757 15.0918 5.25061C15.2988 5.04365 15.5795 4.92739 15.8722 4.92739ZM11.2372 6.25166C12.4079 6.25166 13.5307 6.71674 14.3586 7.54457C15.1864 8.37241 15.6515 9.49519 15.6515 10.6659C15.6515 11.8367 15.1864 12.9594 14.3586 13.7873C13.5307 14.6151 12.4079 15.0802 11.2372 15.0802C10.0665 15.0802 8.94369 14.6151 8.11586 13.7873C7.28802 12.9594 6.82295 11.8367 6.82295 10.6659C6.82295 9.49519 7.28802 8.37241 8.11586 7.54457C8.94369 6.71674 10.0665 6.25166 11.2372 6.25166ZM11.2372 8.01737C10.5348 8.01737 9.8611 8.29641 9.3644 8.79311C8.8677 9.28981 8.58866 9.96348 8.58866 10.6659C8.58866 11.3684 8.8677 12.042 9.3644 12.5387C9.8611 13.0354 10.5348 13.3145 11.2372 13.3145C11.9397 13.3145 12.6133 13.0354 13.11 12.5387C13.6067 12.042 13.8858 11.3684 13.8858 10.6659C13.8858 9.96348 13.6067 9.28981 13.11 8.79311C12.6133 8.29641 11.9397 8.01737 11.2372 8.01737Z" fill="#A29EB6"/>
</svg>
