<svg width="27" height="26" viewBox="0 0 27 26" fill="none" xmlns="http://www.w3.org/2000/svg">
<path d="M18.5 10.2586C19.8807 10.2586 21 9.22232 21 7.944C21 6.66568 19.8807 5.62939 18.5 5.62939C17.1193 5.62939 16 6.66568 16 7.944C16 9.22232 17.1193 10.2586 18.5 10.2586Z" stroke="#A29EB6" stroke-width="1.73595"/>
<path d="M1 13.1517L3.19 11.3776C3.73892 10.9333 4.44968 10.6987 5.1784 10.7212C5.90712 10.7438 6.59937 11.0218 7.115 11.4991L12.4775 16.4639C12.8936 16.8491 13.4432 17.0861 14.0294 17.1331C14.6157 17.1801 15.2011 17.0341 15.6825 16.7209L16.0563 16.4778C16.7507 16.0262 17.5902 15.8061 18.4373 15.8534C19.2844 15.9007 20.0892 16.2126 20.72 16.7382L24.75 20.0956" stroke="#A29EB6" stroke-width="1.73595" stroke-linecap="round"/>
<path d="M26 12.573C26 18.0285 26 20.7563 24.1687 22.4506C22.34 24.146 19.3925 24.146 13.5 24.146C7.6075 24.146 4.66125 24.146 2.83 22.4506C1 20.7574 1 18.0285 1 12.573C1 7.11749 1 4.38974 2.83 2.69429C4.6625 1 7.6075 1 13.5 1C19.3925 1 22.3387 1 24.1687 2.69429C25.3862 3.8215 25.7937 5.40585 25.9312 7.94381" stroke="#A29EB6" stroke-width="1.73595" stroke-linecap="round"/>
</svg>
