<svg width="27" height="25" viewBox="0 0 27 25" fill="none" xmlns="http://www.w3.org/2000/svg">
<rect width="27" height="25" fill="white"/>
<path d="M3.51497 4.19984C3.23056 3.8987 2.76944 3.8987 2.48503 4.19984C2.20062 4.50098 2.20062 4.98922 2.48503 5.29036L3.51497 4.19984ZM2.48503 5.29036L3.96651 6.85899L4.99645 5.76847L3.51497 4.19984L2.48503 5.29036Z" fill="#030303"/>
<path d="M8.18518 2L4.48148 6.31373" stroke="#030303" stroke-width="1.5" stroke-linecap="round"/>
<path d="M3.51497 12.043C3.23056 11.7418 2.76944 11.7418 2.48503 12.043C2.20062 12.3441 2.20062 12.8324 2.48503 13.1335L3.51497 12.043ZM2.48503 13.1335L3.96651 14.7021L4.99645 13.6116L3.51497 12.043L2.48503 13.1335Z" fill="#030303"/>
<path d="M8.18518 9.84314L4.48148 14.1569" stroke="#030303" stroke-width="1.5" stroke-linecap="round"/>
<path d="M3.51497 19.8861C3.23056 19.585 2.76944 19.585 2.48503 19.8861C2.20062 20.1873 2.20062 20.6755 2.48503 20.9766L3.51497 19.8861ZM2.48503 20.9766L3.96651 22.5453L4.99645 21.4547L3.51497 19.8861L2.48503 20.9766Z" fill="#030303"/>
<path d="M8.18518 17.6863L4.48148 22" stroke="#030303" stroke-width="1.5" stroke-linecap="round"/>
<path d="M12.2593 3.7647H23" stroke="black" stroke-width="1.5" stroke-linecap="round"/>
<path d="M12.2593 12H23" stroke="black" stroke-width="1.5" stroke-linecap="round"/>
<path d="M12.2593 20.2353H23" stroke="black" stroke-width="1.5" stroke-linecap="round"/>
</svg>
