<svg width="24" height="24" viewBox="0 0 24 24" fill="none" xmlns="http://www.w3.org/2000/svg">
<g clip-path="url(#clip0_36_231)">
<path fill-rule="evenodd" clip-rule="evenodd" d="M12.7068 15.7072C12.5193 15.8947 12.265 16 11.9998 16C11.7347 16 11.4803 15.8947 11.2928 15.7072L5.63582 10.0502C5.45366 9.86161 5.35287 9.60901 5.35515 9.34681C5.35742 9.08462 5.46259 8.8338 5.648 8.64839C5.83341 8.46299 6.08422 8.35782 6.34642 8.35554C6.60862 8.35326 6.86122 8.45406 7.04982 8.63621L11.9998 13.5862L16.9498 8.63621C17.1384 8.45406 17.391 8.35326 17.6532 8.35554C17.9154 8.35782 18.1662 8.46299 18.3516 8.64839C18.537 8.8338 18.6422 9.08462 18.6445 9.34681C18.6468 9.60901 18.546 9.86161 18.3638 10.0502L12.7068 15.7072Z" fill="#1C1243"/>
</g>
<defs>
<clipPath id="clip0_36_231">
<rect width="24" height="24" fill="white" transform="matrix(-1 0 0 -1 24 24)"/>
</clipPath>
</defs>
</svg>
