<svg width="30" height="30" viewBox="0 0 30 30" fill="none" xmlns="http://www.w3.org/2000/svg">
<path d="M4.95877 24.3154C4.29066 24.3154 3.71893 24.0777 3.24356 23.6024C2.7682 23.127 2.53011 22.5549 2.5293 21.8859V7.30911C2.5293 6.64101 2.76739 6.06927 3.24356 5.5939C3.71974 5.11854 4.29147 4.88045 4.95877 4.87964H24.3945C25.0626 4.87964 25.6348 5.11773 26.111 5.5939C26.5871 6.07008 26.8248 6.64182 26.824 7.30911V21.8859C26.824 22.554 26.5863 23.1262 26.111 23.6024C25.6356 24.0785 25.0635 24.3162 24.3945 24.3154H4.95877ZM14.6767 15.8123L4.95877 9.73858V21.8859H24.3945V9.73858L14.6767 15.8123ZM14.6767 13.3828L24.3945 7.30911H4.95877L14.6767 13.3828ZM4.95877 9.73858V7.30911V21.8859V9.73858Z" fill="#A29EB6"/>
</svg>
