<svg width="22" height="22" viewBox="0 0 22 22" fill="none" xmlns="http://www.w3.org/2000/svg">
<path fill-rule="evenodd" clip-rule="evenodd" d="M19.6608 5.41804C19.6993 5.18436 19.6744 4.94464 19.5888 4.72383C19.5032 4.50303 19.3599 4.30924 19.1739 4.16264C18.9879 4.01604 18.766 3.922 18.5313 3.89032C18.2966 3.85864 18.0577 3.89048 17.8395 3.98252L2.7427 10.3391C1.69034 10.7822 1.63648 12.3043 2.7427 12.7634C3.83821 13.2198 4.94954 13.6374 6.07458 14.0153C7.10575 14.356 8.23051 14.6712 9.1319 14.7604C9.37821 15.0553 9.6881 15.3395 10.0042 15.5991C10.4871 15.9964 11.068 16.4051 11.6683 16.7971C12.8708 17.5829 14.2048 18.3342 15.1035 18.8233C16.1779 19.4059 17.4643 18.735 17.6567 17.5634L19.6608 5.41804ZM4.43512 11.5424L17.7874 5.92038L15.9175 17.2562C15.0355 16.7768 13.7651 16.0591 12.6333 15.3192C12.1117 14.9843 11.608 14.6221 11.1245 14.2342C10.9953 14.1286 10.8698 14.0185 10.7484 13.904L14.2454 10.4079C14.411 10.2424 14.5042 10.0178 14.5042 9.78361C14.5043 9.54942 14.4114 9.32479 14.2458 9.15913C14.0803 8.99347 13.8557 8.90035 13.6215 8.90027C13.3873 8.90019 13.1627 8.99314 12.997 9.15868L9.1681 12.9876C8.52008 12.9046 7.61781 12.6645 6.62725 12.3378C5.88981 12.0921 5.15913 11.8266 4.43601 11.5415L4.43512 11.5424Z" fill="#A29EB6"/>
</svg>
