<svg width="18" height="22" viewBox="0 0 18 22" fill="none" xmlns="http://www.w3.org/2000/svg">
<path d="M13.852 9.582C14.7776 9.96468 15.7617 10.1865 16.762 10.238L16.838 8.74C16.0086 8.69757 15.1926 8.51393 14.425 8.197L13.852 9.582ZM13.085 9.222C13.3343 9.35467 13.59 9.47467 13.852 9.582L14.425 8.197C14.2088 8.10766 13.9972 8.00753 13.791 7.897L13.085 9.222ZM12.05 8.922V14.5H13.55V8.924L12.05 8.922ZM12.412 18.249C13.1538 17.139 13.5499 15.834 13.55 14.499H12.05C12.05 15.5375 11.742 16.5536 11.165 17.417L12.412 18.249ZM9.38301 20.735C10.6167 20.2242 11.6711 19.3591 12.413 18.249L11.165 17.417C10.5881 18.2801 9.76819 18.9528 8.80901 19.35L9.38301 20.735ZM5.48301 21.119C6.79237 21.3795 8.14959 21.2459 9.38301 20.735L8.80901 19.35C7.84991 19.7477 6.79443 19.8511 5.77601 19.649L5.48301 21.119ZM2.02701 19.272C2.97102 20.2159 4.17371 20.8586 5.48301 21.119L5.77601 19.649C4.7575 19.4461 3.82206 18.9456 3.08801 18.211L2.02701 19.272ZM0.180005 15.817C0.440384 17.1263 1.08314 18.329 2.02701 19.273L3.08701 18.213C2.35292 17.4784 1.85318 16.5416 1.65101 15.523L0.180005 15.817ZM0.564005 11.917C0.0531465 13.1504 -0.0804862 14.5076 0.180005 15.817L1.65001 15.524C1.44789 14.5056 1.55229 13.4501 1.95001 12.491L0.564005 11.917ZM3.05001 8.887C1.9399 9.6289 1.07476 10.6834 0.564005 11.917L1.95001 12.491C2.34722 11.5318 3.0199 10.7119 3.88301 10.135L3.05001 8.887ZM6.35001 7.765C5.17065 7.84395 4.03271 8.23019 3.05001 8.887L3.88301 10.135C4.64747 9.62425 5.53266 9.32321 6.45001 9.262L6.35001 7.765ZM7.55001 11.7V8.9H6.05001V11.7H7.55001ZM5.88301 13.128C6.07691 12.9985 6.29606 12.9116 6.52601 12.873L6.27701 11.393C5.83812 11.4672 5.41993 11.6325 5.05001 11.88L5.88301 13.128ZM5.27601 13.868C5.40078 13.5668 5.612 13.3093 5.88301 13.128L5.05001 11.88C4.53216 12.226 4.12849 12.7187 3.89001 13.294L5.27601 13.868ZM5.18201 14.822C5.11844 14.502 5.15115 14.1704 5.27601 13.869L3.89001 13.294C3.65134 13.8695 3.5887 14.5029 3.71001 15.114L5.18201 14.822ZM5.63301 15.667C5.40243 15.4361 5.24548 15.1421 5.18201 14.822L3.71101 15.115C3.83268 15.7257 4.13265 16.2867 4.57301 16.727L5.63301 15.667ZM6.478 16.118C6.15794 16.0545 5.86388 15.8976 5.63301 15.667L4.57301 16.727C5.01301 17.167 5.57401 17.467 6.18501 17.59L6.478 16.118ZM7.43101 16.024C7.12962 16.1489 6.79798 16.1816 6.478 16.118L6.18501 17.59C6.79612 17.7113 7.42949 17.6477 8.00501 17.409L7.43101 16.024ZM8.17101 15.417C7.98973 15.688 7.73223 15.8992 7.43101 16.024L8.00501 17.409C8.58069 17.1707 9.07277 16.767 9.41901 16.249L8.17101 15.417ZM8.45001 14.5C8.45001 14.826 8.35301 15.145 8.17201 15.417L9.41901 16.249C9.76517 15.731 9.94996 15.123 9.95001 14.5H8.45001ZM9.95001 14.5V1.9H8.45001V14.5H9.95001ZM9.60001 2.25H12.4V0.75H9.60001V2.25ZM13.828 2.897C13.6878 2.55672 13.5992 2.19744 13.565 1.831L12.071 1.968C12.118 2.484 12.243 2.99 12.442 3.471L13.828 2.897ZM14.619 4.081C14.2812 3.74127 14.0125 3.33916 13.828 2.897L12.442 3.471C12.7019 4.0949 13.081 4.66215 13.558 5.141L14.619 4.081ZM15.803 4.872C15.3608 4.68748 14.9587 4.41884 14.619 4.081L13.558 5.141C14.0368 5.61836 14.605 5.99777 15.229 6.258L15.803 4.872ZM16.869 5.135C16.5026 5.10084 16.1433 5.01219 15.803 4.872L15.229 6.258C15.709 6.457 16.216 6.582 16.732 6.628L16.869 5.135ZM17.95 9.1V6.3H16.45V9.1H17.95ZM16.732 6.629C16.6523 6.61952 16.5791 6.58043 16.5268 6.51949C16.4746 6.45855 16.4472 6.38021 16.45 6.3H17.95C17.95 5.65 17.432 5.186 16.869 5.135L16.732 6.629ZM16.762 10.239C16.9158 10.2462 17.0694 10.222 17.2136 10.168C17.3577 10.1139 17.4894 10.0311 17.6005 9.92452C17.7116 9.81798 17.7999 9.68993 17.86 9.54819C17.9201 9.40644 17.9507 9.25395 17.95 9.1H16.45C16.45 8.917 16.605 8.73 16.838 8.74L16.762 10.239ZM6.05001 11.7C6.05001 11.598 6.09401 11.517 6.13901 11.47C6.17561 11.4305 6.22402 11.4038 6.27701 11.394L6.52701 12.873C7.02801 12.788 7.55001 12.36 7.55001 11.7H6.05001ZM13.79 7.898C13.061 7.51 12.05 7.982 12.05 8.924H13.55C13.55 9.067 13.464 9.174 13.38 9.221C13.3348 9.24566 13.2841 9.25867 13.2326 9.25884C13.1811 9.25901 13.1304 9.24635 13.085 9.222L13.79 7.898ZM9.95001 1.9C9.95001 1.99283 9.91313 2.08185 9.84749 2.14749C9.78186 2.21313 9.69283 2.25 9.60001 2.25V0.75C9.29501 0.75 9.0025 0.87116 8.78683 1.08683C8.57117 1.30249 8.45001 1.595 8.45001 1.9H9.95001ZM12.4 2.25C12.3198 2.25282 12.2415 2.22539 12.1805 2.17316C12.1196 2.12093 12.0805 2.0477 12.071 1.968L13.565 1.831C13.514 1.268 13.051 0.75 12.4 0.75V2.25ZM6.45001 9.262C6.39962 9.26611 6.34893 9.25985 6.30106 9.2436C6.25319 9.22736 6.20915 9.20148 6.17167 9.16756C6.13419 9.13364 6.10405 9.0924 6.08313 9.04638C6.0622 9.00036 6.05093 8.95054 6.05001 8.9H7.55001C7.55001 8.28 7.03701 7.72 6.35001 7.765L6.45001 9.262Z" fill="#4E4E4E"/>
</svg>
