<svg width="22" height="22" viewBox="0 0 22 22" fill="none" xmlns="http://www.w3.org/2000/svg">
<g clip-path="url(#clip0_85_2491)">
<path fill-rule="evenodd" clip-rule="evenodd" d="M21.4112 14.9608C20.9309 13.9937 20.298 13.1101 19.5369 12.3441C19.282 12.0567 19.0154 11.7798 18.7379 11.5142L18.7044 11.4815C18.6013 11.3816 18.4994 11.2803 18.3989 11.1778C19.4396 9.73068 20.33 8.18121 21.0563 6.55343L21.0854 6.4881L21.1057 6.41924C21.202 6.09876 21.3114 5.48959 20.923 4.93869C20.5204 4.37014 19.8768 4.26773 19.4451 4.26773H17.4613C17.0459 4.24852 16.635 4.36136 16.2877 4.59007C15.9404 4.81877 15.6744 5.15159 15.5279 5.5408C15.101 6.55754 14.5664 7.52566 13.9334 8.42861V6.10406C13.9334 5.80389 13.9052 5.30066 13.5829 4.87689C13.198 4.36837 12.6409 4.26773 12.2543 4.26773H9.106C8.69519 4.25827 8.29647 4.40718 7.99243 4.68361C7.68839 4.96005 7.50231 5.34283 7.47272 5.75268L7.47007 5.79241V5.83214C7.47007 6.26032 7.63958 6.57638 7.77554 6.77503C7.83646 6.86419 7.90091 6.94542 7.9424 6.99662L7.95123 7.0081C7.99537 7.06284 8.0245 7.09903 8.05364 7.13964C8.13133 7.24382 8.24169 7.40627 8.27347 7.82474V9.12518C7.64159 8.06688 7.12342 6.94471 6.72759 5.7774L6.72053 5.75798L6.71347 5.73944C6.60576 5.45781 6.43361 5.04817 6.08841 4.73564C5.68583 4.36925 5.20909 4.26773 4.77561 4.26773H2.76271C2.32393 4.26773 1.7951 4.37014 1.40046 4.78596C1.01289 5.1956 0.96875 5.68647 0.96875 5.94603V6.06433L0.99347 6.1791C1.5499 8.76685 2.69853 11.1904 4.34919 13.2596C5.10343 14.4491 6.12744 15.4441 7.33816 16.1638C8.54889 16.8835 9.91221 17.3077 11.3175 17.4019L11.3537 17.4046H11.3908C12.0318 17.4046 12.7001 17.3489 13.2024 17.0143C13.8796 16.5623 13.9334 15.8693 13.9334 15.5232V14.5185C14.1074 14.6598 14.3228 14.8487 14.5867 15.103C14.9063 15.4226 15.1606 15.6998 15.3787 15.9417L15.4952 16.0706C15.6647 16.2595 15.8316 16.4458 15.9834 16.5985C16.1741 16.7901 16.4098 17.0011 16.7047 17.1574C17.0252 17.326 17.3616 17.4028 17.7182 17.4028H19.732C20.1567 17.4028 20.7649 17.3022 21.1931 16.806C21.6593 16.2657 21.624 15.6027 21.4774 15.1268L21.4509 15.0412L21.4112 14.9608ZM16.3613 15.0544C16.0877 14.7485 15.806 14.45 15.5164 14.1592L15.5137 14.1566C14.3157 13.0018 13.7569 12.8014 13.3613 12.8014C13.1503 12.8014 12.9182 12.8243 12.7672 13.0133C12.7 13.1038 12.6555 13.2092 12.6374 13.3205C12.6164 13.4501 12.6069 13.5812 12.6092 13.7125V15.5232C12.6092 15.7483 12.5721 15.8428 12.4679 15.9117C12.3293 16.0044 12.0335 16.0794 11.3988 16.0794C10.193 15.9974 9.02387 15.6303 7.98758 15.0084C6.95129 14.3865 6.07739 13.5275 5.43775 12.5021L5.43069 12.4906L5.42186 12.48C3.88409 10.5675 2.81285 8.3232 2.29303 5.92484C2.29656 5.81007 2.32128 5.74032 2.36189 5.69795C2.40338 5.6538 2.50491 5.592 2.76271 5.592H4.77561C4.99897 5.592 5.11551 5.64144 5.19938 5.71649C5.29296 5.80301 5.37595 5.94868 5.47483 6.20824C5.96923 7.66141 6.63666 9.021 7.26967 10.0204C7.58573 10.5192 7.89649 10.935 8.17724 11.229C8.31761 11.3756 8.45445 11.4974 8.586 11.5839C8.71225 11.6669 8.85615 11.7331 9.00447 11.7331C9.08216 11.7331 9.1731 11.7243 9.2605 11.6863C9.355 11.6448 9.43276 11.5727 9.48121 11.4815C9.57215 11.3155 9.59775 11.071 9.59775 10.7505V7.77265C9.55096 7.05048 9.33289 6.64348 9.12101 6.35479C9.07803 6.2971 9.03387 6.24029 8.98858 6.1844L8.9771 6.17027C8.93963 6.1244 8.90371 6.07729 8.8694 6.02902C8.8264 5.97476 8.80031 5.90906 8.79435 5.84009C8.80128 5.76993 8.83475 5.70508 8.88793 5.65879C8.9411 5.61251 9.00996 5.5883 9.0804 5.59112H12.2543C12.4361 5.59112 12.497 5.63526 12.5279 5.67676C12.5721 5.73414 12.6092 5.85333 12.6092 6.10406V10.1016C12.6092 10.5766 12.8281 10.8979 13.1459 10.8979C13.5114 10.8979 13.7754 10.6763 14.2363 10.2155L14.2442 10.2067L14.2513 10.1987C15.2852 8.93834 16.1298 7.53396 16.7586 6.0299L16.7621 6.0193C16.8091 5.88626 16.8985 5.77231 17.0165 5.69496C17.1345 5.61761 17.2747 5.58113 17.4154 5.59112H19.446C19.7214 5.59112 19.8115 5.66175 19.8415 5.70324C19.8724 5.74739 19.8945 5.84185 19.8415 6.02725C19.1164 7.64853 18.2199 9.18757 17.1673 10.6181L17.1603 10.6287C17.0587 10.7849 16.9466 10.958 16.9307 11.1557C16.9131 11.3694 17.0049 11.5627 17.1664 11.7711C17.2839 11.9441 17.5266 12.1816 17.773 12.4226L17.7959 12.4456C18.0537 12.6981 18.3336 12.9718 18.5578 13.2366L18.564 13.2428L18.5702 13.2499C19.2388 13.9169 19.7948 14.6879 20.2167 15.5329C20.2838 15.7625 20.2432 15.8808 20.1902 15.9417C20.1293 16.0123 19.9925 16.0785 19.7329 16.0785H17.7182C17.5809 16.0823 17.4449 16.0503 17.3236 15.9858C17.175 15.8988 17.04 15.7906 16.9228 15.6645C16.7965 15.5382 16.6597 15.3855 16.4919 15.1992L16.3613 15.0544Z" fill="#A29EB6"/>
</g>
<defs>
<clipPath id="clip0_85_2491">
<rect width="21.1885" height="21.1885" fill="white" transform="translate(0.748047 0.0712891)"/>
</clipPath>
</defs>
</svg>
