<svg width="22" height="22" viewBox="0 0 22 22" fill="none" xmlns="http://www.w3.org/2000/svg">
<path d="M12.3707 10.6656L9.28076 12.4313V8.8999L12.3707 10.6656Z" fill="#A29EB6" stroke="#A29EB6" stroke-width="1.32428" stroke-linecap="round" stroke-linejoin="round"/>
<path d="M1.77686 11.2908V10.0407C1.77686 7.48479 1.77686 6.20643 2.57584 5.38449C3.3757 4.56167 4.63465 4.52636 7.15166 4.45485C8.34351 4.4213 9.56185 4.39746 10.6054 4.39746C11.6489 4.39746 12.8664 4.4213 14.0591 4.45485C16.5761 4.52636 17.8351 4.56167 18.634 5.38449C19.433 6.20731 19.4339 7.48568 19.4339 10.0407V11.2899C19.4339 13.8466 19.4339 15.1241 18.6349 15.9469C17.8351 16.7689 16.577 16.8051 14.0591 16.8757C12.8672 16.9101 11.6489 16.934 10.6054 16.934C9.56185 16.934 8.34439 16.9101 7.15166 16.8757C4.63465 16.8051 3.3757 16.7698 2.57584 15.9469C1.77597 15.1241 1.77686 13.8457 1.77686 11.2908Z" stroke="#A29EB6" stroke-width="1.32428"/>
</svg>
